<?xml version="1.0" standalone="no"?>
<!DOCTYPE svg PUBLIC "-//W3C//DTD SVG 1.1//EN" "http://www.w3.org/Graphics/SVG/1.1/DTD/svg11.dtd" >
<svg xmlns="http://www.w3.org/2000/svg">
<metadata>
This is a custom SVG webfont generated by Font Squirrel.
Copyright   : Created by Sizenko Alexander  2008 Style7 All rights reserved
Designer    : Sizenko Alexander
Foundry     : Created by Sizenko Alexander 
</metadata>
<defs>
<font id="webfontSGpaHDp6" horiz-adv-x="966" >
<font-face units-per-em="2048" ascent="1638" descent="-410" />
<missing-glyph horiz-adv-x="557" />
<glyph unicode=" "  horiz-adv-x="557" />
<glyph unicode="&#x09;" horiz-adv-x="557" />
<glyph unicode="&#xa0;" horiz-adv-x="557" />
<glyph unicode="!" horiz-adv-x="333" d="M92 0v150h150v-150h-150zM92 297v244l113 110l37 -37v-317h-150zM92 801v391l58 149q74 -18 92 -94v-520l-37 -39z" />
<glyph unicode="&#x22;" horiz-adv-x="634" d="M92 1042v299h150v-299l-74 -73zM393 1044v297h150v-297l-76 -73z" />
<glyph unicode="#" horiz-adv-x="1003" d="M92 522l76 74h74l75 -74l-75 -76h-74zM92 817l76 74h74l75 -74l-75 -74h-74zM279 297v113l75 73l74 -73v-113l-74 -76zM279 633v74l75 75l74 -75v-74l-74 -74zM279 932v110l75 74l74 -74v-110l-74 -76zM391 522l74 74h76l73 -74l-73 -76h-76zM391 819l74 74h76l73 -74 l-73 -74h-76zM578 297v115l73 73l76 -73v-115l-76 -74zM578 633v74l73 75l76 -75v-74l-76 -74zM578 932v110l73 74l76 -74v-110l-76 -76zM688 520l76 74h74l73 -74l-73 -76h-74zM688 819l76 74h74l73 -74l-73 -74h-74z" />
<glyph unicode="$" d="M92 92l150 58h446l57 -150h-559q-76 18 -94 92zM92 727v483l150 -55v-354l-111 -113zM94 1247q18 76 94 94h594q74 -18 92 -94l-147 -55h-483zM168 670l74 75h485l74 -75l-74 -74h-485zM428 -55h150v-95l-76 -73l-74 73v95zM428 205v336h150v-336h-150zM428 801v336h150 v-336h-150zM428 1397v92l74 76l76 -76v-92h-150zM727 150v391l111 110l36 -37v-522q-18 -74 -92 -92z" />
<glyph unicode="%" horiz-adv-x="1116" d="M92 987v223l150 -55v-113l-56 -149q-76 18 -94 94zM92 1247q18 76 94 94h224l-56 -149h-112zM168 74l287 577h84v-200l-222 -451q-112 0 -149 74zM223 893l56 149h112l150 -55q-18 -76 -95 -94h-223zM391 1079v113l55 149q76 -18 95 -94v-223zM578 92v225l149 -57v-110 l-57 -150q-74 18 -92 92zM578 354q18 74 92 92h223l-55 -149h-111zM580 688v203l221 450q113 0 149 -75l-286 -578h-84zM707 0l57 150h110l150 -58q-18 -74 -92 -92h-225zM874 186v111l58 149q74 -18 92 -92v-223z" />
<glyph unicode="&#x26;" horiz-adv-x="1042" d="M92 92l150 58h596l112 -113l-39 -37h-725q-76 18 -94 92zM92 131v483l39 37l111 -110v-355zM168 670l74 75h485l74 -75l-74 -74h-485zM168 801v336l149 -58v-205l-112 -110zM168 1174q18 74 92 92h410l-56 -150h-297zM651 874v242l56 150q76 -18 94 -92v-373l-37 -37z M727 -37h147v-94l-36 -37l-111 113v18zM727 242v299l111 110l36 -37v-428h-92z" />
<glyph unicode="'" horiz-adv-x="333" d="M92 1042v299h150v-299l-74 -73z" />
<glyph unicode="(" horiz-adv-x="651" d="M92 186v428l39 37l111 -110v-391l-56 -58zM92 727v428l94 92l56 -55v-391l-111 -113zM205 74l74 76h204l76 -76l-76 -74h-204zM205 1266l74 75h204l76 -75l-76 -74h-204z" />
<glyph unicode=")" horiz-adv-x="651" d="M92 74l76 76h205l73 -76l-73 -74h-205zM92 1266l76 75h205l73 -75l-73 -74h-205zM410 150v391l112 110l37 -37v-428l-94 -94zM410 801v391l55 55l94 -92v-428l-37 -39z" />
<glyph unicode="*" horiz-adv-x="798" d="M92 494l29 102l129 74l-129 75l-29 103l103 26l131 -73v149l73 74l76 -74v-149l129 73l103 -26l-27 -103l-129 -75l129 -74l27 -102l-103 -29l-129 76v-150l-76 -74l-73 74v150l-131 -76z" />
<glyph unicode="+" horiz-adv-x="819" d="M92 670l76 75h168v166l74 76l73 -76v-166h168l76 -75l-76 -74h-168v-168l-73 -74l-74 74v168h-168z" />
<glyph unicode="," horiz-adv-x="333" d="M92 -150v300h150v-300l-74 -73z" />
<glyph unicode="-" horiz-adv-x="819" d="M92 670l76 75h483l76 -75l-76 -74h-483z" />
<glyph unicode="." horiz-adv-x="333" d="M92 0v150h150v-150h-150z" />
<glyph unicode="/" d="M92 74l287 577h84v-200l-221 -451q-113 0 -150 74zM504 688v203l223 450q109 0 147 -75l-286 -578h-84z" />
<glyph unicode="0" d="M92 92l150 58h446l57 -150h-559q-76 18 -94 92zM92 131v483l39 37l111 -110v-355zM92 727v483l150 -55v-354l-111 -113zM94 1247q18 76 94 94h557l-57 -149h-444zM727 150v391l111 110l36 -37v-522q-18 -74 -92 -92zM727 801v391l55 149q74 -18 92 -94v-520l-36 -39z" />
<glyph unicode="1" horiz-adv-x="333" d="M92 150v391l113 110l37 -37v-522q-18 -74 -92 -92zM92 801v391l58 149q74 -18 92 -94v-520l-37 -39z" />
<glyph unicode="2" d="M92 92l150 58h503l56 -150h-615q-76 18 -94 92zM92 131v483l39 37l111 -110v-355zM94 1247q18 76 94 94h557l-57 -149h-444zM168 670l74 75h485l74 -75l-74 -74h-485zM727 801v391l55 149q74 -18 92 -94v-520l-36 -39z" />
<glyph unicode="3" d="M92 92l150 58h446l57 -150h-559q-76 18 -94 92zM94 1247q18 76 94 94h557l-57 -149h-444zM168 670l74 75h485l74 -75l-74 -74h-485zM727 150v391l111 110l36 -37v-522q-18 -74 -92 -92zM727 801v391l55 149q74 -18 92 -94v-520l-36 -39z" />
<glyph unicode="4" d="M92 727v539l150 -56v-409l-111 -113zM168 670l74 75h485l74 -75l-74 -74h-485zM727 150v391l111 110l36 -37v-522q-18 -74 -92 -92zM727 801v391l55 149q74 -18 92 -94v-520l-36 -39z" />
<glyph unicode="5" d="M92 92l150 58h446l57 -150h-559q-76 18 -94 92zM92 727v483l150 -55v-354l-111 -113zM94 1247q18 76 94 94h613l-56 -149h-501zM168 670l74 75h485l74 -75l-74 -74h-485zM727 150v391l111 110l36 -37v-522q-18 -74 -92 -92z" />
<glyph unicode="6" d="M92 92l150 58h446l57 -150h-559q-76 18 -94 92zM92 131v483l39 37l111 -110v-355zM92 727v483l150 -55v-354l-111 -113zM94 1247q18 76 94 94h613l-56 -149h-501zM168 670l74 75h485l74 -75l-74 -74h-485zM727 150v391l111 110l36 -37v-522q-18 -74 -92 -92z" />
<glyph unicode="7" d="M92 727v483l150 -55v-354l-111 -113zM94 1247q18 76 94 94h557l-57 -149h-444zM727 150v391l111 110l36 -37v-522q-18 -74 -92 -92zM727 801v391l55 149q74 -18 92 -94v-520l-36 -39z" />
<glyph unicode="8" d="M92 92l150 58h446l57 -150h-559q-76 18 -94 92zM92 131v483l39 37l111 -110v-355zM92 727v483l150 -55v-354l-111 -113zM94 1247q18 76 94 94h557l-57 -149h-444zM168 670l74 75h485l74 -75l-74 -74h-485zM727 150v391l111 110l36 -37v-522q-18 -74 -92 -92zM727 801v391 l55 149q74 -18 92 -94v-520l-36 -39z" />
<glyph unicode="9" d="M92 92l150 58h446l57 -150h-559q-76 18 -94 92zM92 727v483l150 -55v-354l-111 -113zM94 1247q18 76 94 94h557l-57 -149h-444zM168 670l74 75h485l74 -75l-74 -74h-485zM727 150v391l111 110l36 -37v-522q-18 -74 -92 -92zM727 801v391l55 149q74 -18 92 -94v-520 l-36 -39z" />
<glyph unicode=":" horiz-adv-x="333" d="M92 0v150h150v-150h-150zM92 893v149h150v-149h-150z" />
<glyph unicode=";" horiz-adv-x="333" d="M92 -150v300h150v-300l-74 -73zM92 893v149h150v-149h-150z" />
<glyph unicode="&#x3c;" horiz-adv-x="688" d="M92 651h205l299 -299l-55 -73h-76zM92 688l373 373h76l55 -72l-299 -301h-205z" />
<glyph unicode="=" horiz-adv-x="819" d="M92 520l76 74h483l76 -74l-76 -76h-483zM92 819l76 74h483l76 -74l-76 -74h-483z" />
<glyph unicode="&#x3e;" horiz-adv-x="688" d="M92 352l299 299h205l-373 -372h-73zM92 989l58 72h73l373 -373h-205z" />
<glyph unicode="?" d="M92 0v150h150v-150h-150zM92 297v317l39 37l111 -110v-244h-150zM94 1247q18 76 94 94h557l-57 -149h-444zM168 670l74 75h485l74 -75l-74 -74h-485zM727 801v391l55 149q74 -18 92 -94v-520l-36 -39z" />
<glyph unicode="@" d="M92 92l150 58h446l57 -150h-559q-76 18 -94 92zM92 131v483l39 37l111 -110v-355zM92 727v483l150 -55v-354l-111 -113zM94 1247q18 76 94 94h557l-57 -149h-444zM391 389l150 57h147l57 -149h-262q-74 18 -92 92zM391 428v186l37 37l113 -110v-58zM391 727v184l150 -55 v-55l-113 -113zM391 952q18 74 92 92l205 -2v-149h-147zM727 446v95l111 110l36 -37v-223q-18 -76 -92 -94zM727 801v391l55 149q74 -18 92 -94v-520l-36 -39z" />
<glyph unicode="A" d="M92 92v522l39 37l111 -110v-391l-56 -150q-76 18 -94 92zM92 727v483l150 -55v-354l-111 -113zM94 1247q18 76 94 94h557l-57 -149h-444zM168 670l74 75h485l74 -75l-74 -74h-485zM727 150v391l111 110l36 -37v-522q-18 -74 -92 -92zM727 801v391l55 149q74 -18 92 -94 v-520l-36 -39z" />
<glyph unicode="B" d="M92 0v92l150 58h444l76 -76l-76 -74h-594zM92 131v483l39 37l111 -110v-355zM92 727v483l150 -55v-354l-111 -113zM92 1247v94h596l76 -75l-76 -74h-446zM168 670l74 75h485l74 -75l-74 -74h-485zM727 150v391l111 110l36 -37v-428l-92 -94zM727 801v391l55 55l92 -92 v-428l-36 -39z" />
<glyph unicode="C" horiz-adv-x="892" d="M92 92l150 58h503l56 -150h-615q-76 18 -94 92zM92 131v483l39 37l111 -110v-355zM92 727v483l150 -55v-354l-111 -113zM94 1247q18 76 94 94h613l-56 -149h-501z" />
<glyph unicode="D" d="M92 0v92l150 58h444l76 -76l-76 -74h-594zM92 131v483l39 37l111 -110v-355zM92 727v483l150 -55v-354l-111 -113zM92 1247v94h596l76 -75l-76 -74h-446zM727 150v391l111 110l36 -37v-428l-92 -94zM727 801v391l55 55l92 -92v-428l-36 -39z" />
<glyph unicode="E" horiz-adv-x="892" d="M92 92l150 58h503l56 -150h-615q-76 18 -94 92zM92 131v483l39 37l111 -110v-355zM92 727v483l150 -55v-354l-111 -113zM94 1247q18 76 94 94h613l-56 -149h-501zM168 670l74 75h485l74 -75l-74 -74h-485z" />
<glyph unicode="F" horiz-adv-x="892" d="M92 92v522l39 37l111 -110v-391l-56 -150q-76 18 -94 92zM92 727v483l150 -55v-354l-111 -113zM94 1247q18 76 94 94h613l-56 -149h-501zM168 670l74 75h485l74 -75l-74 -74h-485z" />
<glyph unicode="G" d="M92 92l150 58h446l57 -150h-559q-76 18 -94 92zM92 131v483l39 37l111 -110v-355zM92 727v483l150 -55v-354l-111 -113zM94 1247q18 76 94 94h613l-56 -149h-501zM483 670l76 75h168l74 -75l-74 -74h-168zM727 150v391l111 110l36 -37v-522q-18 -74 -92 -92z" />
<glyph unicode="H" d="M92 92v522l39 37l111 -110v-391l-56 -150q-76 18 -94 92zM92 707v522q18 74 94 92l56 -147v-392l-111 -112zM168 670l74 75h485l74 -75l-74 -74h-485zM727 150v391l111 110l36 -37v-522q-18 -74 -92 -92zM727 801v391l55 149q74 -18 92 -94v-520l-36 -39z" />
<glyph unicode="I" horiz-adv-x="333" d="M92 168v391l113 111l37 -37v-520q-18 -76 -92 -95zM92 801v391l58 149q74 -18 92 -94v-520l-37 -39z" />
<glyph unicode="J" d="M92 92l150 58h446l57 -150h-559q-76 18 -94 92zM92 131v483l39 37l111 -110v-355zM727 150v391l111 110l36 -37v-522q-18 -74 -92 -92zM727 801v391l55 149q74 -18 92 -94v-520l-36 -39z" />
<glyph unicode="K" d="M92 92v522l39 37l111 -110v-391l-56 -150q-76 18 -94 92zM92 727v520q18 76 94 94l56 -149v-391l-111 -113zM168 670l74 75h485l74 -75l-74 -74h-485zM279 782v111l448 448q109 0 147 -75l-483 -484h-112zM727 150v391l111 110l36 -37v-522q-18 -74 -92 -92z" />
<glyph unicode="L" d="M92 92v522l39 37l111 -110v-391l-56 -150q-76 18 -94 92zM92 727v520q18 76 94 94l56 -149v-391l-111 -113zM223 0l56 150h448l147 -58q-18 -74 -92 -92h-559z" />
<glyph unicode="M" d="M92 92v522l39 37l111 -110v-391l-56 -150q-76 18 -94 92zM92 727v483l150 -55v-354l-111 -113zM94 1247q18 76 94 94h557l-57 -149h-444zM410 727v428h149v-428l-76 -76zM727 150v391l111 110l36 -37v-522q-18 -74 -92 -92zM727 801v391l55 149q74 -18 92 -94v-520 l-36 -39z" />
<glyph unicode="N" d="M92 92v522l39 37l111 -110v-391l-56 -150q-76 18 -94 92zM92 707v522q18 74 94 92l56 -147v-392l-111 -112zM279 1061v113h112l297 -300v-92h-129zM727 150v391l111 110l36 -37v-522q-18 -74 -92 -92zM727 782v392l55 147q74 -18 92 -92v-522l-36 -37z" />
<glyph unicode="O" d="M92 186v428l39 37l111 -110v-391l-56 -58zM92 727v428l94 92l56 -55v-391l-111 -113zM205 74l74 76h409l76 -76l-76 -74h-409zM205 1266l74 75h409l76 -75l-76 -74h-409zM727 150v391l111 110l36 -37v-428l-92 -94zM727 801v391l55 55l92 -92v-428l-36 -39z" />
<glyph unicode="P" d="M92 92v522l39 37l111 -110v-391l-56 -150q-76 18 -94 92zM92 727v483l150 -55v-354l-111 -113zM92 1247v94h596l76 -75l-76 -74h-446zM168 670l74 75h485l74 -75l-74 -74h-485zM727 801v391l55 55l92 -92v-428l-36 -39z" />
<glyph unicode="Q" horiz-adv-x="985" d="M92 92l150 58h317l148 -150h-521q-76 18 -94 92zM92 131v483l39 37l111 -110v-355zM92 727v483l150 -55v-354l-111 -113zM94 1247q18 76 94 94h557l-57 -149h-444zM541 223v113h110l242 -244v-110h-111zM727 317v224l111 110l36 -37v-446zM727 801v391l55 149 q74 -18 92 -94v-520l-36 -39z" />
<glyph unicode="R" d="M92 92v522l39 37l111 -110v-391l-56 -150q-76 18 -94 92zM92 727v483l150 -55v-354l-111 -113zM94 1247q18 76 94 94h557l-57 -149h-444zM168 670l74 75h485l74 -75l-74 -74h-485zM279 446v113h112l483 -485q-37 -74 -147 -74zM727 801v391l55 149q74 -18 92 -94v-520 l-36 -39z" />
<glyph unicode="S" d="M92 92l150 58h446l57 -150h-559q-76 18 -94 92zM92 727v483l150 -55v-354l-111 -113zM94 1247q18 76 94 94h594q74 -18 92 -94l-147 -55h-483zM168 670l74 75h485l74 -75l-74 -74h-485zM727 150v391l111 110l36 -37v-522q-18 -74 -92 -92z" />
<glyph unicode="T" horiz-adv-x="964" d="M92 1247q18 76 94 94h594q74 -18 92 -94l-147 -55h-483zM408 150v428l73 73l76 -73v-486q-18 -74 -94 -92zM408 764v391h149v-391l-76 -76z" />
<glyph unicode="U" d="M92 92l150 58h446l57 -150h-559q-76 18 -94 92zM92 131v483l39 37l111 -110v-355zM92 707v522q18 74 94 92l56 -147v-392l-111 -112zM727 150v391l111 110l36 -37v-522q-18 -74 -92 -92zM727 801v391l55 149q74 -18 92 -94v-520l-36 -39z" />
<glyph unicode="V" d="M92 483v113l39 37l111 -111l223 -299v-223zM92 707v522q18 74 94 92l56 -147v-392l-111 -112zM502 0v223l225 299l111 111l36 -37v-113zM727 782v392l55 147q74 -18 92 -92v-522l-36 -37z" />
<glyph unicode="W" d="M92 131v483l39 37l111 -110v-355zM92 727v520q18 76 94 94l56 -149v-391l-111 -113zM94 92l150 58h444l57 -150h-557q-76 18 -94 92zM410 186v428l73 74l76 -74v-428h-149zM727 150v391l111 110l36 -37v-522q-18 -74 -92 -92zM727 801v391l55 149q74 -18 92 -94v-520 l-36 -39z" />
<glyph unicode="X" d="M92 74l287 577h84v-200l-221 -451q-113 0 -150 74zM94 1266q37 76 150 75l221 -452v-201h-84zM502 451v200h84l286 -577q-37 -74 -147 -74zM504 688v203l223 450q109 0 147 -75l-286 -578h-84z" />
<glyph unicode="Y" d="M92 92l150 58h446l57 -150h-559q-76 18 -94 92zM92 727v539l150 -56v-409l-111 -113zM168 670l74 75h485l74 -75l-74 -74h-485zM727 150v391l111 110l36 -37v-522q-18 -74 -92 -92zM727 801v391l55 149q74 -18 92 -94v-520l-36 -39z" />
<glyph unicode="Z" d="M92 74l299 577h111v-110l-260 -541q-113 0 -150 74zM94 1247q18 76 94 94h500l-74 -149h-370zM279 0l75 150h391l56 -150h-522zM483 688v113l244 540q109 0 147 -75l-278 -578h-113z" />
<glyph unicode="[" horiz-adv-x="575" d="M92 131v483l39 37l111 -110v-355zM92 727v483l150 -55v-354l-111 -113zM94 92l150 58h129l110 -113l-37 -37h-258q-76 18 -94 92zM94 1247q18 76 94 94h258l37 -38l-110 -111h-129z" />
<glyph unicode="\" horiz-adv-x="962" d="M92 1266q39 76 150 75l221 -452v-201h-84zM502 451v200h82l286 -577q-37 -74 -147 -74z" />
<glyph unicode="]" horiz-adv-x="575" d="M92 37l113 113h92l57 -150h-223zM92 1303l39 38h223l-57 -149h-92zM336 150v391l110 110l37 -37v-522q-18 -74 -92 -92zM336 801v391l55 149q74 -18 92 -94v-520l-37 -39z" />
<glyph unicode="^" horiz-adv-x="964" d="M92 893v76l373 372l-2 -204l-297 -299zM502 1137v204l370 -372v-76l-71 -55z" />
<glyph unicode="_" horiz-adv-x="964" d="M92 92l150 58h483l147 -58q-18 -74 -92 -92h-594q-76 18 -94 92z" />
<glyph unicode="`" horiz-adv-x="520" d="M92 1303l21 75h73l242 -241v-76l-74 -19z" />
<glyph unicode="a" d="M92 92v522l39 37l111 -110v-391l-56 -150q-76 18 -94 92zM92 727v483l150 -55v-354l-111 -113zM94 1247q18 76 94 94h557l-57 -149h-444zM168 670l74 75h485l74 -75l-74 -74h-485zM727 150v391l111 110l36 -37v-522q-18 -74 -92 -92zM727 801v391l55 149q74 -18 92 -94 v-520l-36 -39z" />
<glyph unicode="b" d="M92 0v92l150 58h444l76 -76l-76 -74h-594zM92 131v483l39 37l111 -110v-355zM92 727v483l150 -55v-354l-111 -113zM92 1247v94h596l76 -75l-76 -74h-446zM168 670l74 75h485l74 -75l-74 -74h-485zM727 150v391l111 110l36 -37v-428l-92 -94zM727 801v391l55 55l92 -92 v-428l-36 -39z" />
<glyph unicode="c" horiz-adv-x="892" d="M92 92l150 58h503l56 -150h-615q-76 18 -94 92zM92 131v483l39 37l111 -110v-355zM92 727v483l150 -55v-354l-111 -113zM94 1247q18 76 94 94h613l-56 -149h-501z" />
<glyph unicode="d" d="M92 0v92l150 58h444l76 -76l-76 -74h-594zM92 131v483l39 37l111 -110v-355zM92 727v483l150 -55v-354l-111 -113zM92 1247v94h596l76 -75l-76 -74h-446zM727 150v391l111 110l36 -37v-428l-92 -94zM727 801v391l55 55l92 -92v-428l-36 -39z" />
<glyph unicode="e" horiz-adv-x="892" d="M92 92l150 58h503l56 -150h-615q-76 18 -94 92zM92 131v483l39 37l111 -110v-355zM92 727v483l150 -55v-354l-111 -113zM94 1247q18 76 94 94h613l-56 -149h-501zM168 670l74 75h485l74 -75l-74 -74h-485z" />
<glyph unicode="f" horiz-adv-x="892" d="M92 92v522l39 37l111 -110v-391l-56 -150q-76 18 -94 92zM92 727v483l150 -55v-354l-111 -113zM94 1247q18 76 94 94h613l-56 -149h-501zM168 670l74 75h485l74 -75l-74 -74h-485z" />
<glyph unicode="g" d="M92 92l150 58h446l57 -150h-559q-76 18 -94 92zM92 131v483l39 37l111 -110v-355zM92 727v483l150 -55v-354l-111 -113zM94 1247q18 76 94 94h613l-56 -149h-501zM483 670l76 75h168l74 -75l-74 -74h-168zM727 150v391l111 110l36 -37v-522q-18 -74 -92 -92z" />
<glyph unicode="h" d="M92 92v522l39 37l111 -110v-391l-56 -150q-76 18 -94 92zM92 707v522q18 74 94 92l56 -147v-392l-111 -112zM168 670l74 75h485l74 -75l-74 -74h-485zM727 150v391l111 110l36 -37v-522q-18 -74 -92 -92zM727 801v391l55 149q74 -18 92 -94v-520l-36 -39z" />
<glyph unicode="i" horiz-adv-x="333" d="M92 168v391l113 111l37 -37v-520q-18 -76 -92 -95zM92 801v391l58 149q74 -18 92 -94v-520l-37 -39z" />
<glyph unicode="j" d="M92 92l150 58h446l57 -150h-559q-76 18 -94 92zM92 131v483l39 37l111 -110v-355zM727 150v391l111 110l36 -37v-522q-18 -74 -92 -92zM727 801v391l55 149q74 -18 92 -94v-520l-36 -39z" />
<glyph unicode="k" d="M92 92v522l39 37l111 -110v-391l-56 -150q-76 18 -94 92zM92 727v520q18 76 94 94l56 -149v-391l-111 -113zM168 670l74 75h485l74 -75l-74 -74h-485zM279 782v111l448 448q109 0 147 -75l-483 -484h-112zM727 150v391l111 110l36 -37v-522q-18 -74 -92 -92z" />
<glyph unicode="l" d="M92 92v522l39 37l111 -110v-391l-56 -150q-76 18 -94 92zM92 727v520q18 76 94 94l56 -149v-391l-111 -113zM223 0l56 150h448l147 -58q-18 -74 -92 -92h-559z" />
<glyph unicode="m" d="M92 92v522l39 37l111 -110v-391l-56 -150q-76 18 -94 92zM92 727v483l150 -55v-354l-111 -113zM94 1247q18 76 94 94h557l-57 -149h-444zM410 727v428h149v-428l-76 -76zM727 150v391l111 110l36 -37v-522q-18 -74 -92 -92zM727 801v391l55 149q74 -18 92 -94v-520 l-36 -39z" />
<glyph unicode="n" d="M92 92v522l39 37l111 -110v-391l-56 -150q-76 18 -94 92zM92 707v522q18 74 94 92l56 -147v-392l-111 -112zM279 1061v113h112l297 -300v-92h-129zM727 150v391l111 110l36 -37v-522q-18 -74 -92 -92zM727 782v392l55 147q74 -18 92 -92v-522l-36 -37z" />
<glyph unicode="o" d="M92 186v428l39 37l111 -110v-391l-56 -58zM92 727v428l94 92l56 -55v-391l-111 -113zM205 74l74 76h409l76 -76l-76 -74h-409zM205 1266l74 75h409l76 -75l-76 -74h-409zM727 150v391l111 110l36 -37v-428l-92 -94zM727 801v391l55 55l92 -92v-428l-36 -39z" />
<glyph unicode="p" d="M92 92v522l39 37l111 -110v-391l-56 -150q-76 18 -94 92zM92 727v483l150 -55v-354l-111 -113zM92 1247v94h596l76 -75l-76 -74h-446zM168 670l74 75h485l74 -75l-74 -74h-485zM727 801v391l55 55l92 -92v-428l-36 -39z" />
<glyph unicode="q" horiz-adv-x="985" d="M92 92l150 58h317l148 -150h-521q-76 18 -94 92zM92 131v483l39 37l111 -110v-355zM92 727v483l150 -55v-354l-111 -113zM94 1247q18 76 94 94h557l-57 -149h-444zM541 223v113h110l242 -244v-110h-111zM727 317v224l111 110l36 -37v-446zM727 801v391l55 149 q74 -18 92 -94v-520l-36 -39z" />
<glyph unicode="r" d="M92 92v522l39 37l111 -110v-391l-56 -150q-76 18 -94 92zM92 727v483l150 -55v-354l-111 -113zM94 1247q18 76 94 94h557l-57 -149h-444zM168 670l74 75h485l74 -75l-74 -74h-485zM279 446v113h112l483 -485q-37 -74 -147 -74zM727 801v391l55 149q74 -18 92 -94v-520 l-36 -39z" />
<glyph unicode="s" d="M92 92l150 58h446l57 -150h-559q-76 18 -94 92zM92 727v483l150 -55v-354l-111 -113zM94 1247q18 76 94 94h594q74 -18 92 -94l-147 -55h-483zM168 670l74 75h485l74 -75l-74 -74h-485zM727 150v391l111 110l36 -37v-522q-18 -74 -92 -92z" />
<glyph unicode="t" horiz-adv-x="964" d="M92 1247q18 76 94 94h594q74 -18 92 -94l-147 -55h-483zM408 150v428l73 73l76 -73v-486q-18 -74 -94 -92zM408 764v391h149v-391l-76 -76z" />
<glyph unicode="u" d="M92 92l150 58h446l57 -150h-559q-76 18 -94 92zM92 131v483l39 37l111 -110v-355zM92 707v522q18 74 94 92l56 -147v-392l-111 -112zM727 150v391l111 110l36 -37v-522q-18 -74 -92 -92zM727 801v391l55 149q74 -18 92 -94v-520l-36 -39z" />
<glyph unicode="v" d="M92 483v113l39 37l111 -111l223 -299v-223zM92 707v522q18 74 94 92l56 -147v-392l-111 -112zM502 0v223l225 299l111 111l36 -37v-113zM727 782v392l55 147q74 -18 92 -92v-522l-36 -37z" />
<glyph unicode="w" d="M92 131v483l39 37l111 -110v-355zM92 727v520q18 76 94 94l56 -149v-391l-111 -113zM94 92l150 58h444l57 -150h-557q-76 18 -94 92zM410 186v428l73 74l76 -74v-428h-149zM727 150v391l111 110l36 -37v-522q-18 -74 -92 -92zM727 801v391l55 149q74 -18 92 -94v-520 l-36 -39z" />
<glyph unicode="x" d="M92 74l287 577h84v-200l-221 -451q-113 0 -150 74zM94 1266q37 76 150 75l221 -452v-201h-84zM502 451v200h84l286 -577q-37 -74 -147 -74zM504 688v203l223 450q109 0 147 -75l-286 -578h-84z" />
<glyph unicode="y" d="M92 92l150 58h446l57 -150h-559q-76 18 -94 92zM92 727v539l150 -56v-409l-111 -113zM168 670l74 75h485l74 -75l-74 -74h-485zM727 150v391l111 110l36 -37v-522q-18 -74 -92 -92zM727 801v391l55 149q74 -18 92 -94v-520l-36 -39z" />
<glyph unicode="z" d="M92 74l299 577h111v-110l-260 -541q-113 0 -150 74zM94 1247q18 76 94 94h500l-74 -149h-370zM279 0l75 150h391l56 -150h-522zM483 688v113l244 540q109 0 147 -75l-278 -578h-113z" />
<glyph unicode="{" horiz-adv-x="798" d="M92 670l76 75h129l76 -75l-76 -74h-129zM317 131v410l111 110l37 -37v-428zM317 801v409l148 -55v-428l-37 -39zM317 92l150 58h129l111 -113l-37 -37h-258q-77 18 -95 92zM317 1247q18 76 95 94h258l37 -38l-111 -111h-129z" />
<glyph unicode="|" horiz-adv-x="333" d="M92 150v1042l58 149q74 -18 92 -94v-1155q-18 -74 -92 -92z" />
<glyph unicode="}" horiz-adv-x="798" d="M92 37l113 113h129l147 -58q-18 -74 -92 -92h-258zM92 1303l39 38h258q74 -18 92 -94l-147 -55h-129zM336 186v428l37 37l110 -110v-410zM336 727v428l147 55v-409l-110 -113zM428 670l74 75h131l74 -75l-74 -74h-131z" />
<glyph unicode="~" horiz-adv-x="1003" d="M92 817l76 74h74l75 -74l-75 -74h-74zM242 932l75 74h74l74 -74l-74 -76h-74zM391 819l74 74h76l73 -74l-73 -74h-76zM541 688l73 76h74l76 -76l-76 -74h-74zM688 819l76 74h74l73 -74l-73 -74h-74z" />
<glyph unicode="&#xa9;" horiz-adv-x="1079" d="M92 92l150 58h559l55 -150h-670q-76 18 -94 92zM92 131v1079l150 -55v-969zM94 1247q18 76 94 94h668l-55 -149h-557zM317 391v520l148 -55v-410l-55 -149q-75 18 -93 94zM317 950q18 74 93 92h354l-57 -149h-242zM446 297l56 149h112l150 -55q-18 -76 -94 -94h-224z M838 150v1042l55 149q76 -18 94 -94v-1155q-18 -74 -94 -92z" />
<glyph unicode="&#xaa;" d="M92 92v522l39 37l111 -110v-391l-56 -150q-76 18 -94 92zM92 727v483l150 -55v-354l-111 -113zM94 1247q18 76 94 94h557l-57 -149h-444zM168 670l74 75h485l74 -75l-74 -74h-485zM727 150v391l111 110l36 -37v-522q-18 -74 -92 -92zM727 801v391l55 149q74 -18 92 -94 v-520l-36 -39z" />
<glyph unicode="&#xad;" horiz-adv-x="819" d="M92 670l76 75h483l76 -75l-76 -74h-483z" />
<glyph unicode="&#xb2;" d="M92 92l150 58h503l56 -150h-615q-76 18 -94 92zM92 131v483l39 37l111 -110v-355zM94 1247q18 76 94 94h557l-57 -149h-444zM168 670l74 75h485l74 -75l-74 -74h-485zM727 801v391l55 149q74 -18 92 -94v-520l-36 -39z" />
<glyph unicode="&#xb3;" d="M92 92l150 58h446l57 -150h-559q-76 18 -94 92zM94 1247q18 76 94 94h557l-57 -149h-444zM168 670l74 75h485l74 -75l-74 -74h-485zM727 150v391l111 110l36 -37v-522q-18 -74 -92 -92zM727 801v391l55 149q74 -18 92 -94v-520l-36 -39z" />
<glyph unicode="&#xb9;" horiz-adv-x="333" d="M92 150v391l113 110l37 -37v-522q-18 -74 -92 -92zM92 801v391l58 149q74 -18 92 -94v-520l-37 -39z" />
<glyph unicode="&#xba;" d="M92 186v428l39 37l111 -110v-391l-56 -58zM92 727v428l94 92l56 -55v-391l-111 -113zM205 74l74 76h409l76 -76l-76 -74h-409zM205 1266l74 75h409l76 -75l-76 -74h-409zM727 150v391l111 110l36 -37v-428l-92 -94zM727 801v391l55 55l92 -92v-428l-36 -39z" />
<glyph unicode="&#xc0;" d="M223 1723l21 75h73l242 -241v-76l-74 -19zM92 92v522l39 37l111 -110v-391l-56 -150q-76 18 -94 92zM92 727v483l150 -55v-354l-111 -113zM94 1247q18 76 94 94h557l-57 -149h-444zM168 670l74 75h485l74 -75l-74 -74h-485zM727 150v391l111 110l36 -37v-522 q-18 -74 -92 -92zM727 801v391l55 149q74 -18 92 -94v-520l-36 -39z" />
<glyph unicode="&#xc2;" d="M94 1518v76l373 372l-2 -204l-297 -299zM504 1762v204l370 -372v-76l-71 -55zM92 92v522l39 37l111 -110v-391l-56 -150q-76 18 -94 92zM92 727v483l150 -55v-354l-111 -113zM94 1247q18 76 94 94h557l-57 -149h-444zM168 670l74 75h485l74 -75l-74 -74h-485zM727 150 v391l111 110l36 -37v-522q-18 -74 -92 -92zM727 801v391l55 149q74 -18 92 -94v-520l-36 -39z" />
<glyph unicode="&#xc3;" d="M74 1667l76 74h74l75 -74l-75 -74h-74zM224 1782l75 74h74l74 -74l-74 -76h-74zM373 1669l74 74h76l73 -74l-73 -74h-76zM523 1538l73 76h74l76 -76l-76 -74h-74zM670 1669l76 74h74l73 -74l-73 -74h-74zM92 92v522l39 37l111 -110v-391l-56 -150q-76 18 -94 92zM92 727 v483l150 -55v-354l-111 -113zM94 1247q18 76 94 94h557l-57 -149h-444zM168 670l74 75h485l74 -75l-74 -74h-485zM727 150v391l111 110l36 -37v-522q-18 -74 -92 -92zM727 801v391l55 149q74 -18 92 -94v-520l-36 -39z" />
<glyph unicode="&#xc8;" horiz-adv-x="892" d="M233 1723l21 75h73l242 -241v-76l-74 -19zM92 92l150 58h503l56 -150h-615q-76 18 -94 92zM92 131v483l39 37l111 -110v-355zM92 727v483l150 -55v-354l-111 -113zM94 1247q18 76 94 94h613l-56 -149h-501zM168 670l74 75h485l74 -75l-74 -74h-485z" />
<glyph unicode="&#xca;" horiz-adv-x="892" d="M102 1518v76l373 372l-2 -204l-297 -299zM512 1762v204l370 -372v-76l-71 -55zM92 92l150 58h503l56 -150h-615q-76 18 -94 92zM92 131v483l39 37l111 -110v-355zM92 727v483l150 -55v-354l-111 -113zM94 1247q18 76 94 94h613l-56 -149h-501zM168 670l74 75h485l74 -75 l-74 -74h-485z" />
<glyph unicode="&#xcc;" horiz-adv-x="333" d="M-113 1723l21 75h73l242 -241v-76l-74 -19zM92 168v391l113 111l37 -37v-520q-18 -76 -92 -95zM92 801v391l58 149q74 -18 92 -94v-520l-37 -39z" />
<glyph unicode="&#xce;" horiz-adv-x="333" d="M-244 1518v76l373 372l-2 -204l-297 -299zM166 1762v204l370 -372v-76l-71 -55zM92 168v391l113 111l37 -37v-520q-18 -76 -92 -95zM92 801v391l58 149q74 -18 92 -94v-520l-37 -39z" />
<glyph unicode="&#xd1;" d="M74 1667l76 74h74l75 -74l-75 -74h-74zM224 1782l75 74h74l74 -74l-74 -76h-74zM373 1669l74 74h76l73 -74l-73 -74h-76zM523 1538l73 76h74l76 -76l-76 -74h-74zM670 1669l76 74h74l73 -74l-73 -74h-74zM92 92v522l39 37l111 -110v-391l-56 -150q-76 18 -94 92zM92 707 v522q18 74 94 92l56 -147v-392l-111 -112zM279 1061v113h112l297 -300v-92h-129zM727 150v391l111 110l36 -37v-522q-18 -74 -92 -92zM727 782v392l55 147q74 -18 92 -92v-522l-36 -37z" />
<glyph unicode="&#xd2;" d="M223 1723l21 75h73l242 -241v-76l-74 -19zM92 186v428l39 37l111 -110v-391l-56 -58zM92 727v428l94 92l56 -55v-391l-111 -113zM205 74l74 76h409l76 -76l-76 -74h-409zM205 1266l74 75h409l76 -75l-76 -74h-409zM727 150v391l111 110l36 -37v-428l-92 -94zM727 801v391 l55 55l92 -92v-428l-36 -39z" />
<glyph unicode="&#xd4;" d="M92 1518v76l373 372l-2 -204l-297 -299zM502 1762v204l370 -372v-76l-71 -55zM92 186v428l39 37l111 -110v-391l-56 -58zM92 727v428l94 92l56 -55v-391l-111 -113zM205 74l74 76h409l76 -76l-76 -74h-409zM205 1266l74 75h409l76 -75l-76 -74h-409zM727 150v391l111 110 l36 -37v-428l-92 -94zM727 801v391l55 55l92 -92v-428l-36 -39z" />
<glyph unicode="&#xd5;" d="M74 1667l76 74h74l75 -74l-75 -74h-74zM224 1782l75 74h74l74 -74l-74 -76h-74zM373 1669l74 74h76l73 -74l-73 -74h-76zM523 1538l73 76h74l76 -76l-76 -74h-74zM670 1669l76 74h74l73 -74l-73 -74h-74zM92 186v428l39 37l111 -110v-391l-56 -58zM92 727v428l94 92 l56 -55v-391l-111 -113zM205 74l74 76h409l76 -76l-76 -74h-409zM205 1266l74 75h409l76 -75l-76 -74h-409zM727 150v391l111 110l36 -37v-428l-92 -94zM727 801v391l55 55l92 -92v-428l-36 -39z" />
<glyph unicode="&#xd9;" d="M520 1723l21 75h73l242 -241v-76l-74 -19zM92 92l150 58h446l57 -150h-559q-76 18 -94 92zM92 131v483l39 37l111 -110v-355zM92 707v522q18 74 94 92l56 -147v-392l-111 -112zM727 150v391l111 110l36 -37v-522q-18 -74 -92 -92zM727 801v391l55 149q74 -18 92 -94v-520 l-36 -39z" />
<glyph unicode="&#xdb;" d="M389 1518v76l373 372l-2 -204l-297 -299zM799 1762v204l370 -372v-76l-71 -55zM92 92l150 58h446l57 -150h-559q-76 18 -94 92zM92 131v483l39 37l111 -110v-355zM92 707v522q18 74 94 92l56 -147v-392l-111 -112zM727 150v391l111 110l36 -37v-522q-18 -74 -92 -92z M727 801v391l55 149q74 -18 92 -94v-520l-36 -39z" />
<glyph unicode="&#xe0;" d="M223 1723l21 75h73l242 -241v-76l-74 -19zM92 92v522l39 37l111 -110v-391l-56 -150q-76 18 -94 92zM92 727v483l150 -55v-354l-111 -113zM94 1247q18 76 94 94h557l-57 -149h-444zM168 670l74 75h485l74 -75l-74 -74h-485zM727 150v391l111 110l36 -37v-522 q-18 -74 -92 -92zM727 801v391l55 149q74 -18 92 -94v-520l-36 -39z" />
<glyph unicode="&#xe2;" d="M94 1518v76l373 372l-2 -204l-297 -299zM504 1762v204l370 -372v-76l-71 -55zM92 92v522l39 37l111 -110v-391l-56 -150q-76 18 -94 92zM92 727v483l150 -55v-354l-111 -113zM94 1247q18 76 94 94h557l-57 -149h-444zM168 670l74 75h485l74 -75l-74 -74h-485zM727 150 v391l111 110l36 -37v-522q-18 -74 -92 -92zM727 801v391l55 149q74 -18 92 -94v-520l-36 -39z" />
<glyph unicode="&#xe3;" d="M74 1667l76 74h74l75 -74l-75 -74h-74zM224 1782l75 74h74l74 -74l-74 -76h-74zM373 1669l74 74h76l73 -74l-73 -74h-76zM523 1538l73 76h74l76 -76l-76 -74h-74zM670 1669l76 74h74l73 -74l-73 -74h-74zM92 92v522l39 37l111 -110v-391l-56 -150q-76 18 -94 92zM92 727 v483l150 -55v-354l-111 -113zM94 1247q18 76 94 94h557l-57 -149h-444zM168 670l74 75h485l74 -75l-74 -74h-485zM727 150v391l111 110l36 -37v-522q-18 -74 -92 -92zM727 801v391l55 149q74 -18 92 -94v-520l-36 -39z" />
<glyph unicode="&#xe8;" horiz-adv-x="892" d="M233 1723l21 75h73l242 -241v-76l-74 -19zM92 92l150 58h503l56 -150h-615q-76 18 -94 92zM92 131v483l39 37l111 -110v-355zM92 727v483l150 -55v-354l-111 -113zM94 1247q18 76 94 94h613l-56 -149h-501zM168 670l74 75h485l74 -75l-74 -74h-485z" />
<glyph unicode="&#xea;" horiz-adv-x="892" d="M102 1518v76l373 372l-2 -204l-297 -299zM512 1762v204l370 -372v-76l-71 -55zM92 92l150 58h503l56 -150h-615q-76 18 -94 92zM92 131v483l39 37l111 -110v-355zM92 727v483l150 -55v-354l-111 -113zM94 1247q18 76 94 94h613l-56 -149h-501zM168 670l74 75h485l74 -75 l-74 -74h-485z" />
<glyph unicode="&#xec;" horiz-adv-x="333" d="M-113 1723l21 75h73l242 -241v-76l-74 -19zM92 168v391l113 111l37 -37v-520q-18 -76 -92 -95zM92 801v391l58 149q74 -18 92 -94v-520l-37 -39z" />
<glyph unicode="&#xee;" horiz-adv-x="333" d="M-244 1518v76l373 372l-2 -204l-297 -299zM166 1762v204l370 -372v-76l-71 -55zM92 168v391l113 111l37 -37v-520q-18 -76 -92 -95zM92 801v391l58 149q74 -18 92 -94v-520l-37 -39z" />
<glyph unicode="&#xf1;" d="M74 1667l76 74h74l75 -74l-75 -74h-74zM224 1782l75 74h74l74 -74l-74 -76h-74zM373 1669l74 74h76l73 -74l-73 -74h-76zM523 1538l73 76h74l76 -76l-76 -74h-74zM670 1669l76 74h74l73 -74l-73 -74h-74zM92 92v522l39 37l111 -110v-391l-56 -150q-76 18 -94 92zM92 707 v522q18 74 94 92l56 -147v-392l-111 -112zM279 1061v113h112l297 -300v-92h-129zM727 150v391l111 110l36 -37v-522q-18 -74 -92 -92zM727 782v392l55 147q74 -18 92 -92v-522l-36 -37z" />
<glyph unicode="&#xf2;" d="M223 1723l21 75h73l242 -241v-76l-74 -19zM92 186v428l39 37l111 -110v-391l-56 -58zM92 727v428l94 92l56 -55v-391l-111 -113zM205 74l74 76h409l76 -76l-76 -74h-409zM205 1266l74 75h409l76 -75l-76 -74h-409zM727 150v391l111 110l36 -37v-428l-92 -94zM727 801v391 l55 55l92 -92v-428l-36 -39z" />
<glyph unicode="&#xf4;" d="M92 1518v76l373 372l-2 -204l-297 -299zM502 1762v204l370 -372v-76l-71 -55zM92 186v428l39 37l111 -110v-391l-56 -58zM92 727v428l94 92l56 -55v-391l-111 -113zM205 74l74 76h409l76 -76l-76 -74h-409zM205 1266l74 75h409l76 -75l-76 -74h-409zM727 150v391l111 110 l36 -37v-428l-92 -94zM727 801v391l55 55l92 -92v-428l-36 -39z" />
<glyph unicode="&#xf5;" d="M74 1667l76 74h74l75 -74l-75 -74h-74zM224 1782l75 74h74l74 -74l-74 -76h-74zM373 1669l74 74h76l73 -74l-73 -74h-76zM523 1538l73 76h74l76 -76l-76 -74h-74zM670 1669l76 74h74l73 -74l-73 -74h-74zM92 186v428l39 37l111 -110v-391l-56 -58zM92 727v428l94 92 l56 -55v-391l-111 -113zM205 74l74 76h409l76 -76l-76 -74h-409zM205 1266l74 75h409l76 -75l-76 -74h-409zM727 150v391l111 110l36 -37v-428l-92 -94zM727 801v391l55 55l92 -92v-428l-36 -39z" />
<glyph unicode="&#xf9;" d="M520 1723l21 75h73l242 -241v-76l-74 -19zM92 92l150 58h446l57 -150h-559q-76 18 -94 92zM92 131v483l39 37l111 -110v-355zM92 707v522q18 74 94 92l56 -147v-392l-111 -112zM727 150v391l111 110l36 -37v-522q-18 -74 -92 -92zM727 801v391l55 149q74 -18 92 -94v-520 l-36 -39z" />
<glyph unicode="&#xfb;" d="M389 1518v76l373 372l-2 -204l-297 -299zM799 1762v204l370 -372v-76l-71 -55zM92 92l150 58h446l57 -150h-559q-76 18 -94 92zM92 131v483l39 37l111 -110v-355zM92 707v522q18 74 94 92l56 -147v-392l-111 -112zM727 150v391l111 110l36 -37v-522q-18 -74 -92 -92z M727 801v391l55 149q74 -18 92 -94v-520l-36 -39z" />
<glyph unicode="&#x152;" horiz-adv-x="1861" d="M1061 92l150 58h503l56 -150h-615q-76 18 -94 92zM1061 131v483l39 37l111 -110v-355zM1061 727v483l150 -55v-354l-111 -113zM1063 1247q18 76 94 94h613l-56 -149h-501zM1137 670l74 75h485l74 -75l-74 -74h-485zM92 186v428l39 37l111 -110v-391l-56 -58zM92 727v428 l94 92l56 -55v-391l-111 -113zM205 74l74 76h409l76 -76l-76 -74h-409zM205 1266l74 75h409l76 -75l-76 -74h-409zM727 150v391l111 110l36 -37v-428l-92 -94zM727 801v391l55 55l92 -92v-428l-36 -39z" />
<glyph unicode="&#x153;" horiz-adv-x="1861" d="M1061 92l150 58h503l56 -150h-615q-76 18 -94 92zM1061 131v483l39 37l111 -110v-355zM1061 727v483l150 -55v-354l-111 -113zM1063 1247q18 76 94 94h613l-56 -149h-501zM1137 670l74 75h485l74 -75l-74 -74h-485zM92 186v428l39 37l111 -110v-391l-56 -58zM92 727v428 l94 92l56 -55v-391l-111 -113zM205 74l74 76h409l76 -76l-76 -74h-409zM205 1266l74 75h409l76 -75l-76 -74h-409zM727 150v391l111 110l36 -37v-428l-92 -94zM727 801v391l55 55l92 -92v-428l-36 -39z" />
<glyph unicode="&#x2c6;" horiz-adv-x="964" d="M92 893v76l373 372l-2 -204l-297 -299zM502 1137v204l370 -372v-76l-71 -55z" />
<glyph unicode="&#x2dc;" horiz-adv-x="557" d="M-410 325l76 74h74l75 -74l-75 -74h-74zM-260 440l75 74h74l74 -74l-74 -76h-74zM-111 327l74 74h76l73 -74l-73 -74h-76zM39 196l73 76h74l76 -76l-76 -74h-74zM186 327l76 74h74l73 -74l-73 -74h-74z" />
<glyph unicode="&#x2000;" horiz-adv-x="983" />
<glyph unicode="&#x2001;" horiz-adv-x="1966" />
<glyph unicode="&#x2002;" horiz-adv-x="983" />
<glyph unicode="&#x2003;" horiz-adv-x="1966" />
<glyph unicode="&#x2004;" horiz-adv-x="655" />
<glyph unicode="&#x2005;" horiz-adv-x="491" />
<glyph unicode="&#x2006;" horiz-adv-x="327" />
<glyph unicode="&#x2007;" horiz-adv-x="327" />
<glyph unicode="&#x2008;" horiz-adv-x="245" />
<glyph unicode="&#x2009;" horiz-adv-x="391" />
<glyph unicode="&#x200a;" horiz-adv-x="106" />
<glyph unicode="&#x2010;" horiz-adv-x="819" d="M92 670l76 75h483l76 -75l-76 -74h-483z" />
<glyph unicode="&#x2011;" horiz-adv-x="819" d="M92 670l76 75h483l76 -75l-76 -74h-483z" />
<glyph unicode="&#x2013;" horiz-adv-x="1003" d="M92 670l76 75h670l73 -75l-73 -74h-670z" />
<glyph unicode="&#x2014;" horiz-adv-x="1079" d="M92 670l76 75h743l76 -75l-76 -74h-743z" />
<glyph unicode="&#x2018;" horiz-adv-x="333" d="M92 969v297l76 75l74 -75v-297h-150z" />
<glyph unicode="&#x2019;" horiz-adv-x="333" d="M92 1042v299h150v-299l-74 -73z" />
<glyph unicode="&#x201c;" horiz-adv-x="632" d="M92 971v297l76 73l74 -73v-297h-150zM391 969v297l74 75l76 -75v-297h-150z" />
<glyph unicode="&#x201d;" horiz-adv-x="634" d="M92 1042v299h150v-299l-74 -73zM393 1044v297h150v-297l-76 -73z" />
<glyph unicode="&#x2022;" horiz-adv-x="724" d="M92 680q0 111 80 190.5t190 79.5q111 0 191 -79.5t80 -190.5t-80 -190.5t-191 -79.5t-190.5 79.5t-79.5 190.5z" />
<glyph unicode="&#x2026;" horiz-adv-x="1003" d="M762 0v150h150v-150h-150zM428 0v150h150v-150h-150zM92 0v150h150v-150h-150z" />
<glyph unicode="&#x202f;" horiz-adv-x="391" />
<glyph unicode="&#x2039;" horiz-adv-x="688" d="M92 651h205l299 -299l-55 -73h-76zM92 688l373 373h76l55 -72l-299 -301h-205z" />
<glyph unicode="&#x203a;" horiz-adv-x="688" d="M92 352l299 299h205l-373 -372h-73zM92 989l58 72h73l373 -373h-205z" />
<glyph unicode="&#x205f;" horiz-adv-x="491" />
<glyph unicode="&#x2122;" horiz-adv-x="1933" d="M1059 92v522l39 37l111 -110v-391l-56 -150q-76 18 -94 92zM1059 727v483l150 -55v-354l-111 -113zM1061 1247q18 76 94 94h557l-57 -149h-444zM1377 727v428h149v-428l-76 -76zM1694 150v391l111 110l36 -37v-522q-18 -74 -92 -92zM1694 801v391l55 149q74 -18 92 -94 v-520l-36 -39zM92 1247q18 76 94 94h594q74 -18 92 -94l-147 -55h-483zM408 150v428l73 73l76 -73v-486q-18 -74 -94 -92zM408 764v391h149v-391l-76 -76z" />
</font>
</defs>
</svg>
